<svg xmlns="http://www.w3.org/2000/svg" width="450" height="200" viewBox="0 50 450 200"><path fill="#fff" stroke="#badbe8" stroke-width="2" stroke-linecap="round" stroke-miterlimit="10" d="M394.6 222h-20l-5-30h30z"/><path fill="none" stroke="#badbe8" stroke-width="2" stroke-linecap="round" stroke-miterlimit="10" d="M404.6 192h-40l5-5h30z"/><path fill="#fff" stroke="#badbe8" stroke-width="2" stroke-linecap="round" stroke-miterlimit="10" d="M370.1 184h29v3h-29zM255.4 222.2h-60l7.1-25h45.8z"/><path fill="#fafafa" d="M251 210.6l-3.7-13.4h-43.9l-3.6 13.3z"/><path d="M309.7 204.5H141.1c-3.1 0-5.7-2.5-5.7-5.7V90.1c0-3.1 2.5-5.7 5.7-5.7h168.6c3.1 0 5.7 2.5 5.7 5.7v108.6c0 3.2-2.5 5.8-5.7 5.8z" fill="#fff" stroke="#badbe8" stroke-width="2" stroke-linecap="round" stroke-miterlimit="10"/><path d="M309.7 204.5H141.1c-3.1 0-5.7-2.5-5.7-5.7v-8.6h180v8.6c0 3.1-2.5 5.7-5.7 5.7z" fill="#fff" stroke="#badbe8" stroke-width="2" stroke-linecap="round" stroke-miterlimit="10"/><circle cx="225.4" cy="197.3" r="3" fill="#fff" stroke="#badbe8" stroke-width="2" stroke-linecap="round" stroke-miterlimit="10"/><path fill="none" stroke="#badbe8" stroke-width="2" stroke-linecap="round" stroke-miterlimit="10" d="M28.4 222.2h400"/><ellipse transform="rotate(-44.161 273.349 154.288)" cx="273.4" cy="154.3" rx="30" ry="30" fill="#fff" stroke="#badbe8" stroke-width="2" stroke-linecap="round" stroke-miterlimit="10"/><path d="M325.1 203.9l-3.6 3.5c-.8.8-2.1.8-2.8 0l-21.1-21.7c-.8-.8-.8-2.1 0-2.8l3.6-3.5c.8-.8 2.1-.8 2.8 0l21.1 21.7c.8.8.8 2 0 2.8z" fill="#fff" stroke="#badbe8" stroke-width="2" stroke-linecap="round" stroke-miterlimit="10"/><path fill="none" stroke="#badbe8" stroke-width="2" stroke-linecap="round" stroke-miterlimit="10" d="M299.4 181.1l-5.4-5.6"/><ellipse transform="rotate(-44.161 274.243 156.266)" cx="274.3" cy="156.3" rx="26.7" ry="26.7" fill="#fafafa"/><path d="M55.9 222.2H102l-8.2-20-.6.6c.5-1.5.8-3.1.8-4.8 0-8.3-6.7-15-15-15s-15 6.7-15 15c0 1.7.3 3.3.8 4.8l-.6-.6-8.3 20z" fill="#fff" stroke="#badbe8" stroke-width="2" stroke-linecap="round" stroke-miterlimit="10"/><circle cx="78.8" cy="197.8" r="11.5" fill="#fafafa"/><circle cx="78.8" cy="197.9" r="14.9" fill="none" stroke="#badbe8" stroke-width="2" stroke-linecap="round" stroke-miterlimit="10"/><path fill="none" stroke="#badbe8" stroke-width="2" stroke-linecap="round" stroke-miterlimit="10" d="M78.8 188.5v9.4h7.3"/></svg>
